<?xml version="1.0" encoding="utf-8"?><svg version="1.1" id="Layer_1" xmlns="http://www.w3.org/2000/svg" xmlns:xlink="http://www.w3.org/1999/xlink" x="0px" y="0px" viewBox="0 0 50 50" style="enable-background:new 0 0 50 50;" xml:space="preserve"><style type="text/css">	.st0{fill:#313c4e;}</style><g>	<path class="st0" d="M48.9,22.8c1-1,1.3-2.4,0.9-3.7c-0.4-1.3-1.6-2.3-3-2.5l-13.4-1.1c-0.1,0-0.2-0.1-0.2-0.1l-5-12.3 c-0.6-1.2-1.9-2-3.3-2c-1.4,0-2.6,0.8-3.3,2l-4.1,12.3c0,0.1-0.1,0.1-0.2,0.1L3.1,16.6c-1.4,0.2-2.5,1.1-2.9,2.5 c-0.4,1.3-0.1,2.7,0.9,3.7l9.9,9c0.1,0.1,0.1,0.2,0.1,0.2L8.2,44.7c-0.2,1.4,0.3,2.7,1.4,3.5c1.1,0.8,2.6,0.9,3.9,0.2L24.9,41 c0.1,0,0.2,0,0.2,0l11.4,7.5c0.5,0.3,1.1,0.4,1.7,0.4c0.7,0,1.5-0.2,2.1-0.7c1.1-0.8,1.7-2.2,1.4-3.6l-2.9-11.9 c0-0.1,0-0.2,0.1-0.3L48.9,22.8z M37.4,33.1L40.3,45c0.1,0.8-0.2,1.6-0.8,2.1c-0.7,0.5-1.5,0.5-2.2,0.2l-11.4-7.5 c-0.3-0.1-0.5-0.2-0.8-0.2s-0.6,0.1-0.8,0.2l-11.4,7.5c-0.7,0.4-1.6,0.3-2.2-0.2c-0.7-0.5-1-1.3-0.9-2l2.9-12.7 c0.1-0.6-0.1-1.2-0.5-1.6l-9.9-9c-0.6-0.6-0.8-1.4-0.5-2.2c0.3-0.8,0.9-1.3,1.7-1.4L17.6,17c0.6-0.1,1.1-0.5,1.4-1l4.1-12.3 C23.5,3,24.2,2.5,25,2.5c0.8,0,1.5,0.4,1.9,1.1l5,12.3c0.3,0.5,0.8,0.9,1.4,1l13.4,1.1c0.8,0.1,1.5,0.7,1.7,1.5 c0.3,0.8,0.1,1.6-0.5,2.2l-10,9.7C37.5,31.9,37.3,32.5,37.4,33.1z"/></g></svg>